<svg xmlns="http://www.w3.org/2000/svg" viewBox="0 0 54 54" width="54" height="54">
  <rect width="54" height="54" rx="12" fill="#E8EDF4"/>
  <path d="M27 18a9 9 0 1 0 0 18 9 9 0 0 0 0-18zm0 14a5 5 0 1 1 0-10 5 5 0 0 1 0 10zM40 27h-4a9 9 0 0 0-.7-2.8l2.8-2.8-2.8-2.8-2.8 2.8A9 9 0 0 0 29.7 18V14h-4v4a9 9 0 0 0-2.8.7l-2.8-2.8-2.8 2.8 2.8 2.8A9 9 0 0 0 18 24.3H14v4h4c.1 1 .3 2 .7 2.8l-2.8 2.8 2.8 2.8 2.8-2.8a9 9 0 0 0 2.8.7v4h4v-4a9 9 0 0 0 2.8-.7l2.8 2.8 2.8-2.8-2.8-2.8A9 9 0 0 0 36 31h4z" fill="#1B365D"/>
</svg>